<svg id="visual" viewBox="0 0 960 540" width="960" height="540" xmlns="http://www.w3.org/2000/svg" xmlns:xlink="http://www.w3.org/1999/xlink" version="1.1"><rect x="0" y="0" width="960" height="540" fill="#ffffff"></rect><path d="M0 461L7.7 455.8C15.3 450.7 30.7 440.3 45.8 436.3C61 432.3 76 434.7 91.2 442.8C106.3 451 121.7 465 137 472.2C152.3 479.3 167.7 479.7 183 470C198.3 460.3 213.7 440.7 228.8 437.2C244 433.7 259 446.3 274.2 446.8C289.3 447.3 304.7 435.7 320 441.8C335.3 448 350.7 472 365.8 482.2C381 492.3 396 488.7 411.2 484.7C426.3 480.7 441.7 476.3 457 469.5C472.3 462.7 487.7 453.3 503 451C518.3 448.7 533.7 453.3 548.8 458.8C564 464.3 579 470.7 594.2 469.8C609.3 469 624.7 461 640 462.5C655.3 464 670.7 475 685.8 479.7C701 484.3 716 482.7 731.2 478.2C746.3 473.7 761.7 466.3 777 457.7C792.3 449 807.7 439 823 445C838.3 451 853.7 473 868.8 471.5C884 470 899 445 914.2 445C929.3 445 944.7 470 952.3 482.5L960 495L960 541L952.3 541C944.7 541 929.3 541 914.2 541C899 541 884 541 868.8 541C853.7 541 838.3 541 823 541C807.7 541 792.3 541 777 541C761.7 541 746.3 541 731.2 541C716 541 701 541 685.8 541C670.7 541 655.3 541 640 541C624.7 541 609.3 541 594.2 541C579 541 564 541 548.8 541C533.7 541 518.3 541 503 541C487.7 541 472.3 541 457 541C441.7 541 426.3 541 411.2 541C396 541 381 541 365.8 541C350.7 541 335.3 541 320 541C304.7 541 289.3 541 274.2 541C259 541 244 541 228.8 541C213.7 541 198.3 541 183 541C167.7 541 152.3 541 137 541C121.7 541 106.3 541 91.2 541C76 541 61 541 45.8 541C30.7 541 15.3 541 7.7 541L0 541Z" fill="#FF0066" stroke-linecap="round" stroke-linejoin="miter"></path></svg>