<svg id="visual" viewBox="0 0 960 540" width="960" height="540" xmlns="http://www.w3.org/2000/svg" xmlns:xlink="http://www.w3.org/1999/xlink" version="1.1"><rect x="0" y="0" width="960" height="540" fill="#ffffff"></rect><defs><linearGradient id="grad1_0" x1="43.8%" y1="100%" x2="100%" y2="0%"><stop offset="14.444444444444446%" stop-color="#ffffff" stop-opacity="1"></stop><stop offset="85.55555555555554%" stop-color="#ffffff" stop-opacity="1"></stop></linearGradient></defs><defs><linearGradient id="grad2_0" x1="0%" y1="100%" x2="56.3%" y2="0%"><stop offset="14.444444444444446%" stop-color="#ffffff" stop-opacity="1"></stop><stop offset="85.55555555555554%" stop-color="#ffffff" stop-opacity="1"></stop></linearGradient></defs><g transform="translate(960, 540)"><path d="M-324 0C-311.5 -31.5 -298.9 -62.9 -286.3 -93C-273.6 -123.1 -260.8 -151.9 -242.7 -176.3C-224.6 -200.8 -201.2 -220.9 -177.5 -244.3C-153.8 -267.7 -129.8 -294.3 -100.1 -308.1C-70.5 -322 -35.2 -323 0 -324L0 0Z" fill="#FF0066"></path></g><g transform="translate(0, 0)"><path d="M324 0C303.7 28.1 283.3 56.3 275.8 89.6C268.3 123 273.5 161.5 258.9 188.1C244.3 214.6 209.8 229.1 181 249.2C152.3 269.2 129.3 294.8 100.1 308.1C70.9 321.5 35.5 322.8 0 324L0 0Z" fill="#FF0066"></path></g></svg>