<svg id="visual" viewBox="0 0 960 540" width="960" height="540" xmlns="http://www.w3.org/2000/svg" xmlns:xlink="http://www.w3.org/1999/xlink" version="1.1"><rect x="0" y="0" width="960" height="540" fill="#ffffff"></rect><path d="M0 435L8.5 442.3C17 449.7 34 464.3 50.8 462.7C67.7 461 84.3 443 101.2 440.7C118 438.3 135 451.7 151.8 454.7C168.7 457.7 185.3 450.3 202.2 444.8C219 439.3 236 435.7 252.8 431.7C269.7 427.7 286.3 423.3 303.2 430C320 436.7 337 454.3 353.8 465.3C370.7 476.3 387.3 480.7 404.2 477.5C421 474.3 438 463.7 454.8 465.2C471.7 466.7 488.3 480.3 505.2 477.7C522 475 539 456 555.8 445.7C572.7 435.3 589.3 433.7 606.2 441.7C623 449.7 640 467.3 656.8 465.2C673.7 463 690.3 441 707.2 443.2C724 445.3 741 471.7 757.8 472.8C774.7 474 791.3 450 808.2 446C825 442 842 458 858.8 458.2C875.7 458.3 892.3 442.7 909.2 433.3C926 424 943 421 951.5 419.5L960 418L960 541L951.5 541C943 541 926 541 909.2 541C892.3 541 875.7 541 858.8 541C842 541 825 541 808.2 541C791.3 541 774.7 541 757.8 541C741 541 724 541 707.2 541C690.3 541 673.7 541 656.8 541C640 541 623 541 606.2 541C589.3 541 572.7 541 555.8 541C539 541 522 541 505.2 541C488.3 541 471.7 541 454.8 541C438 541 421 541 404.2 541C387.3 541 370.7 541 353.8 541C337 541 320 541 303.2 541C286.3 541 269.7 541 252.8 541C236 541 219 541 202.2 541C185.3 541 168.7 541 151.8 541C135 541 118 541 101.2 541C84.3 541 67.7 541 50.8 541C34 541 17 541 8.5 541L0 541Z" fill="#ff0069" stroke-linecap="round" stroke-linejoin="miter"></path></svg>