<svg id="visual" viewBox="0 0 960 540" width="960" height="540" xmlns="http://www.w3.org/2000/svg" xmlns:xlink="http://www.w3.org/1999/xlink" version="1.1"><rect x="0" y="0" width="960" height="540" fill="#ffffff"></rect><path d="M0 427L12.3 431.5C24.7 436 49.3 445 74 449.7C98.7 454.3 123.3 454.7 148 453.3C172.7 452 197.3 449 221.8 447.5C246.3 446 270.7 446 295.2 446.5C319.7 447 344.3 448 369 444.3C393.7 440.7 418.3 432.3 443 428.7C467.7 425 492.3 426 517 427.2C541.7 428.3 566.3 429.7 591 433.7C615.7 437.7 640.3 444.3 664.8 448.2C689.3 452 713.7 453 738.2 445.7C762.7 438.3 787.3 422.7 812 421.5C836.7 420.3 861.3 433.7 886 436C910.7 438.3 935.3 429.7 947.7 425.3L960 421L960 541L947.7 541C935.3 541 910.7 541 886 541C861.3 541 836.7 541 812 541C787.3 541 762.7 541 738.2 541C713.7 541 689.3 541 664.8 541C640.3 541 615.7 541 591 541C566.3 541 541.7 541 517 541C492.3 541 467.7 541 443 541C418.3 541 393.7 541 369 541C344.3 541 319.7 541 295.2 541C270.7 541 246.3 541 221.8 541C197.3 541 172.7 541 148 541C123.3 541 98.7 541 74 541C49.3 541 24.7 541 12.3 541L0 541Z" fill="#fa69b6"></path><path d="M0 428L12.3 432.7C24.7 437.3 49.3 446.7 74 452.5C98.7 458.3 123.3 460.7 148 459.3C172.7 458 197.3 453 221.8 452.7C246.3 452.3 270.7 456.7 295.2 452.8C319.7 449 344.3 437 369 433.2C393.7 429.3 418.3 433.7 443 437.7C467.7 441.7 492.3 445.3 517 443.2C541.7 441 566.3 433 591 434.5C615.7 436 640.3 447 664.8 449.7C689.3 452.3 713.7 446.7 738.2 444.3C762.7 442 787.3 443 812 443.5C836.7 444 861.3 444 886 440.7C910.7 437.3 935.3 430.7 947.7 427.3L960 424L960 541L947.7 541C935.3 541 910.7 541 886 541C861.3 541 836.7 541 812 541C787.3 541 762.7 541 738.2 541C713.7 541 689.3 541 664.8 541C640.3 541 615.7 541 591 541C566.3 541 541.7 541 517 541C492.3 541 467.7 541 443 541C418.3 541 393.7 541 369 541C344.3 541 319.7 541 295.2 541C270.7 541 246.3 541 221.8 541C197.3 541 172.7 541 148 541C123.3 541 98.7 541 74 541C49.3 541 24.7 541 12.3 541L0 541Z" fill="#ee59a2"></path><path d="M0 473L12.3 473C24.7 473 49.3 473 74 469.8C98.7 466.7 123.3 460.3 148 462C172.7 463.7 197.3 473.3 221.8 474.2C246.3 475 270.7 467 295.2 462C319.7 457 344.3 455 369 454.7C393.7 454.3 418.3 455.7 443 456.7C467.7 457.7 492.3 458.3 517 458.3C541.7 458.3 566.3 457.7 591 458.2C615.7 458.7 640.3 460.3 664.8 464C689.3 467.7 713.7 473.3 738.2 476.8C762.7 480.3 787.3 481.7 812 476.8C836.7 472 861.3 461 886 459.7C910.7 458.3 935.3 466.7 947.7 470.8L960 475L960 541L947.7 541C935.3 541 910.7 541 886 541C861.3 541 836.7 541 812 541C787.3 541 762.7 541 738.2 541C713.7 541 689.3 541 664.8 541C640.3 541 615.7 541 591 541C566.3 541 541.7 541 517 541C492.3 541 467.7 541 443 541C418.3 541 393.7 541 369 541C344.3 541 319.7 541 295.2 541C270.7 541 246.3 541 221.8 541C197.3 541 172.7 541 148 541C123.3 541 98.7 541 74 541C49.3 541 24.7 541 12.3 541L0 541Z" fill="#e1498e"></path><path d="M0 474L12.3 474.3C24.7 474.7 49.3 475.3 74 477.7C98.7 480 123.3 484 148 484.8C172.7 485.7 197.3 483.3 221.8 481.2C246.3 479 270.7 477 295.2 478.7C319.7 480.3 344.3 485.7 369 486C393.7 486.3 418.3 481.7 443 481.8C467.7 482 492.3 487 517 489.3C541.7 491.7 566.3 491.3 591 490.7C615.7 490 640.3 489 664.8 486.3C689.3 483.7 713.7 479.3 738.2 480.8C762.7 482.3 787.3 489.7 812 492.8C836.7 496 861.3 495 886 491.7C910.7 488.3 935.3 482.7 947.7 479.8L960 477L960 541L947.7 541C935.3 541 910.7 541 886 541C861.3 541 836.7 541 812 541C787.3 541 762.7 541 738.2 541C713.7 541 689.3 541 664.8 541C640.3 541 615.7 541 591 541C566.3 541 541.7 541 517 541C492.3 541 467.7 541 443 541C418.3 541 393.7 541 369 541C344.3 541 319.7 541 295.2 541C270.7 541 246.3 541 221.8 541C197.3 541 172.7 541 148 541C123.3 541 98.7 541 74 541C49.3 541 24.7 541 12.3 541L0 541Z" fill="#d3397a"></path><path d="M0 491L12.3 493C24.7 495 49.3 499 74 497.8C98.7 496.7 123.3 490.3 148 491.7C172.7 493 197.3 502 221.8 502.2C246.3 502.3 270.7 493.7 295.2 490.3C319.7 487 344.3 489 369 493C393.7 497 418.3 503 443 505.7C467.7 508.3 492.3 507.7 517 503.8C541.7 500 566.3 493 591 493.7C615.7 494.3 640.3 502.7 664.8 506.7C689.3 510.7 713.7 510.3 738.2 507.8C762.7 505.3 787.3 500.7 812 498.5C836.7 496.3 861.3 496.7 886 498C910.7 499.3 935.3 501.7 947.7 502.8L960 504L960 541L947.7 541C935.3 541 910.7 541 886 541C861.3 541 836.7 541 812 541C787.3 541 762.7 541 738.2 541C713.7 541 689.3 541 664.8 541C640.3 541 615.7 541 591 541C566.3 541 541.7 541 517 541C492.3 541 467.7 541 443 541C418.3 541 393.7 541 369 541C344.3 541 319.7 541 295.2 541C270.7 541 246.3 541 221.8 541C197.3 541 172.7 541 148 541C123.3 541 98.7 541 74 541C49.3 541 24.7 541 12.3 541L0 541Z" fill="#c52767"></path><path d="M0 516L12.3 514.2C24.7 512.3 49.3 508.7 74 510C98.7 511.3 123.3 517.7 148 519.2C172.7 520.7 197.3 517.3 221.8 516.5C246.3 515.7 270.7 517.3 295.2 517.5C319.7 517.7 344.3 516.3 369 515.3C393.7 514.3 418.3 513.7 443 514.2C467.7 514.7 492.3 516.3 517 515.5C541.7 514.7 566.3 511.3 591 509.7C615.7 508 640.3 508 664.8 509.3C689.3 510.7 713.7 513.3 738.2 514.5C762.7 515.7 787.3 515.3 812 514.2C836.7 513 861.3 511 886 512.8C910.7 514.7 935.3 520.3 947.7 523.2L960 526L960 541L947.7 541C935.3 541 910.7 541 886 541C861.3 541 836.7 541 812 541C787.3 541 762.7 541 738.2 541C713.7 541 689.3 541 664.8 541C640.3 541 615.7 541 591 541C566.3 541 541.7 541 517 541C492.3 541 467.7 541 443 541C418.3 541 393.7 541 369 541C344.3 541 319.7 541 295.2 541C270.7 541 246.3 541 221.8 541C197.3 541 172.7 541 148 541C123.3 541 98.7 541 74 541C49.3 541 24.7 541 12.3 541L0 541Z" fill="#b61055"></path></svg>